<?xml version="1.0" encoding="us-ascii" standalone="no"?><svg xmlns="http://www.w3.org/2000/svg" xmlns:xlink="http://www.w3.org/1999/xlink" contentStyleType="text/css" height="958px" preserveAspectRatio="none" style="width:2169px;height:958px;background:#FFFFFF;" version="1.1" viewBox="0 0 2169 958" width="2169px" zoomAndPan="magnify"><defs/><g><text fill="#000000" font-family="sans-serif" font-size="14" font-weight="bold" lengthAdjust="spacing" textLength="479" x="838" y="23.5352">Route Optimization Platform &#8212; Component Diagram (Static View)</text><!--cluster API Layer--><g id="cluster_API Layer"><path d="M8.5,197.4783 L76.5,197.4783 A3.75,3.75 0 0 1 79,199.9783 L86,219.9666 L169.5,219.9666 A2.5,2.5 0 0 1 172,222.4666 L172,449.9283 A2.5,2.5 0 0 1 169.5,452.4283 L8.5,452.4283 A2.5,2.5 0 0 1 6,449.9283 L6,199.9783 A2.5,2.5 0 0 1 8.5,197.4783 " fill="none" style="stroke:#000000;stroke-width:1.5;"/><line style="stroke:#000000;stroke-width:1.5;" x1="6" x2="86" y1="219.9666" y2="219.9666"/><text fill="#000000" font-family="sans-serif" font-size="14" font-weight="bold" lengthAdjust="spacing" textLength="67" x="10" y="213.0134">API Layer</text></g><!--cluster Pipeline A ? CP-SAT (active, wired to API)--><g id="cluster_Pipeline A &#8212; CP-SAT (active, wired to API)"><path d="M198.5,348.4583 L506.5,348.4583 A3.75,3.75 0 0 1 509,350.9583 L516,370.9466 L590.5,370.9466 A2.5,2.5 0 0 1 593,373.4466 L593,783.1383 A2.5,2.5 0 0 1 590.5,785.6383 L198.5,785.6383 A2.5,2.5 0 0 1 196,783.1383 L196,350.9583 A2.5,2.5 0 0 1 198.5,348.4583 " fill="none" style="stroke:#000000;stroke-width:1.5;"/><line style="stroke:#000000;stroke-width:1.5;" x1="196" x2="516" y1="370.9466" y2="370.9466"/><text fill="#000000" font-family="sans-serif" font-size="14" font-weight="bold" lengthAdjust="spacing" textLength="307" x="200" y="363.9934">Pipeline A &#8212; CP-SAT (active, wired to API)</text></g><!--cluster Pipeline B ? PyVRP (alternative, CLI-only)--><g id="cluster_Pipeline B &#8212; PyVRP (alternative, CLI-only)"><path d="M1201.5,511.1883 L1507.5,511.1883 A3.75,3.75 0 0 1 1510,513.6883 L1517,533.6766 L1523.5,533.6766 A2.5,2.5 0 0 1 1526,536.1766 L1526,783.1383 A2.5,2.5 0 0 1 1523.5,785.6383 L1201.5,785.6383 A2.5,2.5 0 0 1 1199,783.1383 L1199,513.6883 A2.5,2.5 0 0 1 1201.5,511.1883 " fill="none" style="stroke:#000000;stroke-width:1.5;"/><line style="stroke:#000000;stroke-width:1.5;" x1="1199" x2="1517" y1="533.6766" y2="533.6766"/><text fill="#000000" font-family="sans-serif" font-size="14" font-weight="bold" lengthAdjust="spacing" textLength="305" x="1203" y="526.7234">Pipeline B &#8212; PyVRP (alternative, CLI-only)</text></g><!--cluster Shared--><g id="cluster_Shared"><path d="M619.5,677.1683 L668.5,677.1683 A3.75,3.75 0 0 1 671,679.6683 L678,699.6566 L1172.5,699.6566 A2.5,2.5 0 0 1 1175,702.1566 L1175,787.6383 A2.5,2.5 0 0 1 1172.5,790.1383 L619.5,790.1383 A2.5,2.5 0 0 1 617,787.6383 L617,679.6683 A2.5,2.5 0 0 1 619.5,677.1683 " fill="none" style="stroke:#000000;stroke-width:1.5;"/><line style="stroke:#000000;stroke-width:1.5;" x1="617" x2="678" y1="699.6566" y2="699.6566"/><text fill="#000000" font-family="sans-serif" font-size="14" font-weight="bold" lengthAdjust="spacing" textLength="48" x="621" y="692.7034">Shared</text></g><!--cluster Offline Comparison Tool--><g id="cluster_Offline Comparison Tool"><path d="M1781.5,511.1883 L1963.5,511.1883 A3.75,3.75 0 0 1 1966,513.6883 L1973,533.6766 L2159.5,533.6766 A2.5,2.5 0 0 1 2162,536.1766 L2162,800.3883 A2.5,2.5 0 0 1 2159.5,802.8883 L1781.5,802.8883 A2.5,2.5 0 0 1 1779,800.3883 L1779,513.6883 A2.5,2.5 0 0 1 1781.5,511.1883 " fill="none" style="stroke:#000000;stroke-width:1.5;"/><line style="stroke:#000000;stroke-width:1.5;" x1="1779" x2="1973" y1="533.6766" y2="533.6766"/><text fill="#000000" font-family="sans-serif" font-size="14" font-weight="bold" lengthAdjust="spacing" textLength="181" x="1783" y="526.7234">Offline Comparison Tool</text></g><!--entity API--><g id="elem_API"><rect fill="#F1F1F1" height="52.9766" rx="2.5" ry="2.5" style="stroke:#181818;stroke-width:0.5;" width="81" x="48.5" y="232.4783"/><text fill="#000000" font-family="sans-serif" font-size="14" lengthAdjust="spacing" textLength="35" x="58.5" y="256.0134">Flask</text><text fill="#000000" font-family="sans-serif" font-size="14" lengthAdjust="spacing" textLength="4" x="93.5" y="256.0134">&#160;</text><text fill="#000000" font-family="sans-serif" font-size="14" lengthAdjust="spacing" textLength="22" x="97.5" y="256.0134">API</text><text fill="#000000" font-family="sans-serif" font-size="14" lengthAdjust="spacing" textLength="56" x="58.5" y="272.5017">(app.py)</text></g><!--entity Validator--><g id="elem_Validator"><rect fill="#F1F1F1" height="52.9766" rx="2.5" ry="2.5" style="stroke:#181818;stroke-width:0.5;" width="110" x="22" y="383.4583"/><text fill="#000000" font-family="sans-serif" font-size="14" lengthAdjust="spacing" textLength="62" x="32" y="406.9934">Validator</text><text fill="#000000" font-family="sans-serif" font-size="14" lengthAdjust="spacing" textLength="90" x="32" y="423.4817">(validator.py)</text></g><!--entity MainOrchestrator--><g id="elem_MainOrchestrator"><rect fill="#F1F1F1" height="52.9766" rx="2.5" ry="2.5" style="stroke:#181818;stroke-width:0.5;" width="107" x="456.5" y="383.4583"/><text fill="#000000" font-family="sans-serif" font-size="14" lengthAdjust="spacing" textLength="87" x="466.5" y="406.9934">Orchestrator</text><text fill="#000000" font-family="sans-serif" font-size="14" lengthAdjust="spacing" textLength="64" x="466.5" y="423.4817">(main.py)</text></g><!--entity VehicleRoutesSolver--><g id="elem_VehicleRoutesSolver"><rect fill="#F1F1F1" height="52.9766" rx="2.5" ry="2.5" style="stroke:#181818;stroke-width:0.5;" width="166" x="212" y="546.1883"/><text fill="#000000" font-family="sans-serif" font-size="14" lengthAdjust="spacing" textLength="49" x="222" y="569.7234">Vehicle</text><text fill="#000000" font-family="sans-serif" font-size="14" lengthAdjust="spacing" textLength="4" x="271" y="569.7234">&#160;</text><text fill="#000000" font-family="sans-serif" font-size="14" lengthAdjust="spacing" textLength="47" x="275" y="569.7234">Routes</text><text fill="#000000" font-family="sans-serif" font-size="14" lengthAdjust="spacing" textLength="4" x="322" y="569.7234">&#160;</text><text fill="#000000" font-family="sans-serif" font-size="14" lengthAdjust="spacing" textLength="42" x="326" y="569.7234">Solver</text><text fill="#000000" font-family="sans-serif" font-size="14" lengthAdjust="spacing" textLength="128" x="222" y="586.2117">(vehicle_routes.py)</text></g><!--entity LoaderRoutesSolver--><g id="elem_LoaderRoutesSolver"><rect fill="#F1F1F1" height="52.9766" rx="2.5" ry="2.5" style="stroke:#181818;stroke-width:0.5;" width="164" x="413" y="546.1883"/><text fill="#000000" font-family="sans-serif" font-size="14" lengthAdjust="spacing" textLength="47" x="423" y="569.7234">Loader</text><text fill="#000000" font-family="sans-serif" font-size="14" lengthAdjust="spacing" textLength="4" x="470" y="569.7234">&#160;</text><text fill="#000000" font-family="sans-serif" font-size="14" lengthAdjust="spacing" textLength="47" x="474" y="569.7234">Routes</text><text fill="#000000" font-family="sans-serif" font-size="14" lengthAdjust="spacing" textLength="4" x="521" y="569.7234">&#160;</text><text fill="#000000" font-family="sans-serif" font-size="14" lengthAdjust="spacing" textLength="42" x="525" y="569.7234">Solver</text><text fill="#000000" font-family="sans-serif" font-size="14" lengthAdjust="spacing" textLength="125" x="423" y="586.2117">(loader_routes.py)</text></g><!--entity CommonUtils--><g id="elem_CommonUtils"><rect fill="#F1F1F1" height="52.9766" rx="2.5" ry="2.5" style="stroke:#181818;stroke-width:0.5;" width="181" x="244.5" y="716.6683"/><text fill="#000000" font-family="sans-serif" font-size="14" lengthAdjust="spacing" textLength="63" x="254.5" y="740.2034">Common</text><text fill="#000000" font-family="sans-serif" font-size="14" lengthAdjust="spacing" textLength="4" x="317.5" y="740.2034">&#160;</text><text fill="#000000" font-family="sans-serif" font-size="14" lengthAdjust="spacing" textLength="30" x="321.5" y="740.2034">Utils</text><text fill="#000000" font-family="sans-serif" font-size="14" lengthAdjust="spacing" textLength="161" x="254.5" y="756.6917">(common_functions.py)</text></g><!--entity ScriptOrchestrator--><g id="elem_ScriptOrchestrator"><rect fill="#F1F1F1" height="52.9766" rx="2.5" ry="2.5" style="stroke:#181818;stroke-width:0.5;" width="107" x="1222.5" y="546.1883"/><text fill="#000000" font-family="sans-serif" font-size="14" lengthAdjust="spacing" textLength="87" x="1232.5" y="569.7234">Orchestrator</text><text fill="#000000" font-family="sans-serif" font-size="14" lengthAdjust="spacing" textLength="68" x="1232.5" y="586.2117">(script.py)</text></g><!--entity PyVRPModel--><g id="elem_PyVRPModel"><rect fill="#F1F1F1" height="52.9766" rx="2.5" ry="2.5" style="stroke:#181818;stroke-width:0.5;" width="139" x="1215.5" y="716.6683"/><text fill="#000000" font-family="sans-serif" font-size="14" font-style="italic" lengthAdjust="spacing" textLength="119" x="1225.5" y="740.2034">&#171;external library&#187;</text><text fill="#000000" font-family="sans-serif" font-size="14" lengthAdjust="spacing" textLength="41" x="1241.5" y="756.6917">PyVRP</text><text fill="#000000" font-family="sans-serif" font-size="14" lengthAdjust="spacing" textLength="4" x="1282.5" y="756.6917">&#160;</text><text fill="#000000" font-family="sans-serif" font-size="14" lengthAdjust="spacing" textLength="42" x="1286.5" y="756.6917">Model</text></g><!--entity LoadersSolver--><g id="elem_LoadersSolver"><rect fill="#F1F1F1" height="52.9766" rx="2.5" ry="2.5" style="stroke:#181818;stroke-width:0.5;" width="120" x="1390" y="716.6683"/><text fill="#000000" font-family="sans-serif" font-size="14" lengthAdjust="spacing" textLength="54" x="1400" y="740.2034">Loaders</text><text fill="#000000" font-family="sans-serif" font-size="14" lengthAdjust="spacing" textLength="4" x="1454" y="740.2034">&#160;</text><text fill="#000000" font-family="sans-serif" font-size="14" lengthAdjust="spacing" textLength="42" x="1458" y="740.2034">Solver</text><text fill="#000000" font-family="sans-serif" font-size="14" lengthAdjust="spacing" textLength="81" x="1400" y="756.6917">(loaders.py)</text></g><!--entity Models--><g id="elem_Models"><rect fill="#F1F1F1" height="52.9766" rx="2.5" ry="2.5" style="stroke:#181818;stroke-width:0.5;" width="163" x="633.5" y="716.6683"/><text fill="#000000" font-family="sans-serif" font-size="14" lengthAdjust="spacing" textLength="49" x="643.5" y="740.2034">Models</text><text fill="#000000" font-family="sans-serif" font-size="14" lengthAdjust="spacing" textLength="4" x="692.5" y="740.2034">&#160;</text><text fill="#000000" font-family="sans-serif" font-size="14" lengthAdjust="spacing" textLength="7" x="696.5" y="740.2034">/</text><text fill="#000000" font-family="sans-serif" font-size="14" lengthAdjust="spacing" textLength="4" x="703.5" y="740.2034">&#160;</text><text fill="#000000" font-family="sans-serif" font-size="14" lengthAdjust="spacing" textLength="79" x="707.5" y="740.2034">Dataclasses</text><text fill="#000000" font-family="sans-serif" font-size="14" lengthAdjust="spacing" textLength="80" x="643.5" y="756.6917">(models.py)</text></g><!--entity Verifier--><g id="elem_Verifier"><rect fill="#F1F1F1" height="52.9766" rx="2.5" ry="2.5" style="stroke:#181818;stroke-width:0.5;" width="98" x="832" y="716.6683"/><text fill="#000000" font-family="sans-serif" font-size="14" lengthAdjust="spacing" textLength="50" x="842" y="740.2034">Verifier</text><text fill="#000000" font-family="sans-serif" font-size="14" lengthAdjust="spacing" textLength="78" x="842" y="756.6917">(verifier.py)</text></g><!--entity DataStorage--><g id="elem_DataStorage"><path d="M965.5,722.1683 C965.5,712.1683 1062,712.1683 1062,712.1683 C1062,712.1683 1158.5,712.1683 1158.5,722.1683 L1158.5,764.1448 C1158.5,774.1448 1062,774.1448 1062,774.1448 C1062,774.1448 965.5,774.1448 965.5,764.1448 L965.5,722.1683 " fill="#F1F1F1" style="stroke:#181818;stroke-width:0.5;"/><path d="M965.5,722.1683 C965.5,732.1683 1062,732.1683 1062,732.1683 C1062,732.1683 1158.5,732.1683 1158.5,722.1683 " fill="none" style="stroke:#181818;stroke-width:0.5;"/><text fill="#000000" font-family="sans-serif" font-size="14" lengthAdjust="spacing" textLength="31" x="975.5" y="749.7034">Data</text><text fill="#000000" font-family="sans-serif" font-size="14" lengthAdjust="spacing" textLength="4" x="1006.5" y="749.7034">&#160;</text><text fill="#000000" font-family="sans-serif" font-size="14" lengthAdjust="spacing" textLength="53" x="1010.5" y="749.7034">Storage</text><text fill="#000000" font-family="sans-serif" font-size="14" lengthAdjust="spacing" textLength="74" x="975.5" y="766.1917">(input.json</text><text fill="#000000" font-family="sans-serif" font-size="14" lengthAdjust="spacing" textLength="4" x="1049.5" y="766.1917">&#160;</text><text fill="#000000" font-family="sans-serif" font-size="14" lengthAdjust="spacing" textLength="7" x="1053.5" y="766.1917">/</text><text fill="#000000" font-family="sans-serif" font-size="14" lengthAdjust="spacing" textLength="4" x="1060.5" y="766.1917">&#160;</text><text fill="#000000" font-family="sans-serif" font-size="14" lengthAdjust="spacing" textLength="84" x="1064.5" y="766.1917">output.json)</text></g><!--entity Tester--><g id="elem_Tester"><rect fill="#F1F1F1" height="52.9766" rx="2.5" ry="2.5" style="stroke:#181818;stroke-width:0.5;" width="89" x="1841.5" y="546.1883"/><text fill="#000000" font-family="sans-serif" font-size="14" lengthAdjust="spacing" textLength="43" x="1851.5" y="569.7234">Tester</text><text fill="#000000" font-family="sans-serif" font-size="14" lengthAdjust="spacing" textLength="69" x="1851.5" y="586.2117">(tester.py)</text></g><!--entity TestCases--><g id="elem_TestCases"><path d="M1798,699.4183 L1839,699.4183 A3.75,3.75 0 0 1 1841.5,701.9183 L1848.5,720.4183 L1974,720.4183 A2.5,2.5 0 0 1 1976.5,722.9183 L1976.5,784.3831 A2.5,2.5 0 0 1 1974,786.8831 L1798,786.8831 A2.5,2.5 0 0 1 1795.5,784.3831 L1795.5,701.9183 A2.5,2.5 0 0 1 1798,699.4183 " fill="#F1F1F1" style="stroke:#181818;stroke-width:0.5;"/><line style="stroke:#181818;stroke-width:0.5;" x1="1795.5" x2="1848.5" y1="720.4183" y2="720.4183"/><text fill="#000000" font-family="sans-serif" font-size="14" lengthAdjust="spacing" textLength="76" x="1805.5" y="740.9534">test_cases/</text><text fill="#000000" font-family="sans-serif" font-size="14" lengthAdjust="spacing" textLength="62" x="1805.5" y="757.4417">(baseline</text><text fill="#000000" font-family="sans-serif" font-size="14" lengthAdjust="spacing" textLength="4" x="1867.5" y="757.4417">&#160;</text><text fill="#000000" font-family="sans-serif" font-size="14" lengthAdjust="spacing" textLength="11" x="1871.5" y="757.4417">+</text><text fill="#000000" font-family="sans-serif" font-size="14" lengthAdjust="spacing" textLength="4" x="1882.5" y="757.4417">&#160;</text><text fill="#000000" font-family="sans-serif" font-size="14" lengthAdjust="spacing" textLength="70" x="1886.5" y="757.4417">generated</text><text fill="#000000" font-family="sans-serif" font-size="14" lengthAdjust="spacing" textLength="68" x="1805.5" y="773.93">solutions)</text></g><!--entity ComparisonFile--><g id="elem_ComparisonFile"><path d="M2012,727.4083 L2012,758.8966 A2.5,2.5 0 0 0 2014.5,761.3966 L2143.5,761.3966 A2.5,2.5 0 0 0 2146,758.8966 L2146,734.9083 L2136,724.9083 L2014.5,724.9083 A2.5,2.5 0 0 0 2012,727.4083 " fill="#F1F1F1" style="stroke:#181818;stroke-width:0.5;"/><path d="M2136,724.9083 L2136,732.4083 A2.5,2.5 0 0 0 2138.5,734.9083 L2146,734.9083 " fill="#F1F1F1" style="stroke:#181818;stroke-width:0.5;"/><text fill="#000000" font-family="sans-serif" font-size="14" lengthAdjust="spacing" textLength="114" x="2022" y="748.4434">comparison.xlsx</text></g><!--entity Client--><g id="elem_Client"><ellipse cx="89" cy="51.4883" fill="#F1F1F1" rx="8" ry="8" style="stroke:#181818;stroke-width:0.5;"/><path d="M89,59.4883 L89,86.4883 M76,67.4883 L102,67.4883 M89,86.4883 L76,101.4883 M89,86.4883 L102,101.4883 " fill="none" style="stroke:#181818;stroke-width:0.5;"/><text fill="#000000" font-family="sans-serif" font-size="14" lengthAdjust="spacing" textLength="22" x="56" y="116.5234">API</text><text fill="#000000" font-family="sans-serif" font-size="14" lengthAdjust="spacing" textLength="4" x="78" y="116.5234">&#160;</text><text fill="#000000" font-family="sans-serif" font-size="14" lengthAdjust="spacing" textLength="40" x="82" y="116.5234">Client</text></g><!--entity Developer--><g id="elem_Developer"><ellipse cx="1276" cy="380.1983" fill="#F1F1F1" rx="8" ry="8" style="stroke:#181818;stroke-width:0.5;"/><path d="M1276,388.1983 L1276,415.1983 M1263,396.1983 L1289,396.1983 M1276,415.1983 L1263,430.1983 M1276,415.1983 L1289,430.1983 " fill="none" style="stroke:#181818;stroke-width:0.5;"/><text fill="#000000" font-family="sans-serif" font-size="14" lengthAdjust="spacing" textLength="69" x="1224" y="445.2334">Developer</text><text fill="#000000" font-family="sans-serif" font-size="14" lengthAdjust="spacing" textLength="4" x="1293" y="445.2334">&#160;</text><text fill="#000000" font-family="sans-serif" font-size="14" lengthAdjust="spacing" textLength="31" x="1297" y="445.2334">(CLI)</text></g><g id="elem_GMN47"><path d="M1545.5,699.8783 L1545.5,786.431 L1760.5,786.431 L1760.5,709.8783 L1750.5,699.8783 L1545.5,699.8783 " fill="#FEFFDD" style="stroke:#181818;stroke-width:0.5;"/><path d="M1750.5,699.8783 L1750.5,709.8783 L1760.5,709.8783 L1750.5,699.8783 " fill="#FEFFDD" style="stroke:#181818;stroke-width:1.0;"/><text fill="#000000" font-family="sans-serif" font-size="13" lengthAdjust="spacing" textLength="49" x="1551.5" y="717.4466">Pipeline</text><text fill="#000000" font-family="sans-serif" font-size="13" lengthAdjust="spacing" textLength="4" x="1600.5" y="717.4466">&#160;</text><text fill="#000000" font-family="sans-serif" font-size="13" lengthAdjust="spacing" textLength="7" x="1604.5" y="717.4466">B</text><text fill="#000000" font-family="sans-serif" font-size="13" lengthAdjust="spacing" textLength="4" x="1611.5" y="717.4466">&#160;</text><text fill="#000000" font-family="sans-serif" font-size="13" lengthAdjust="spacing" textLength="11" x="1615.5" y="717.4466">is</text><text fill="#000000" font-family="sans-serif" font-size="13" lengthAdjust="spacing" textLength="4" x="1626.5" y="717.4466">&#160;</text><text fill="#000000" font-family="sans-serif" font-size="13" lengthAdjust="spacing" textLength="21" x="1630.5" y="717.4466">not</text><text fill="#000000" font-family="sans-serif" font-size="13" lengthAdjust="spacing" textLength="4" x="1651.5" y="717.4466">&#160;</text><text fill="#000000" font-family="sans-serif" font-size="13" lengthAdjust="spacing" textLength="60" x="1655.5" y="717.4466">reachable</text><text fill="#000000" font-family="sans-serif" font-size="13" lengthAdjust="spacing" textLength="50" x="1551.5" y="732.7572">through</text><text fill="#000000" font-family="sans-serif" font-size="13" lengthAdjust="spacing" textLength="4" x="1601.5" y="732.7572">&#160;</text><text fill="#000000" font-family="sans-serif" font-size="13" lengthAdjust="spacing" textLength="46" x="1605.5" y="732.7572">app.py.</text><text fill="#000000" font-family="sans-serif" font-size="13" lengthAdjust="spacing" textLength="50" x="1551.5" y="748.0677">Invoked</text><text fill="#000000" font-family="sans-serif" font-size="13" lengthAdjust="spacing" textLength="4" x="1601.5" y="748.0677">&#160;</text><text fill="#000000" font-family="sans-serif" font-size="13" lengthAdjust="spacing" textLength="57" x="1605.5" y="748.0677">manually</text><text fill="#000000" font-family="sans-serif" font-size="13" lengthAdjust="spacing" textLength="4" x="1662.5" y="748.0677">&#160;</text><text fill="#000000" font-family="sans-serif" font-size="13" lengthAdjust="spacing" textLength="18" x="1666.5" y="748.0677">via</text><text fill="#000000" font-family="sans-serif" font-size="13" lengthAdjust="spacing" textLength="4" x="1684.5" y="748.0677">&#160;</text><text fill="#000000" font-family="sans-serif" font-size="13" lengthAdjust="spacing" textLength="20" x="1688.5" y="748.0677">CLI</text><text fill="#000000" font-family="sans-serif" font-size="13" lengthAdjust="spacing" textLength="4" x="1708.5" y="748.0677">&#160;</text><text fill="#000000" font-family="sans-serif" font-size="13" lengthAdjust="spacing" textLength="18" x="1712.5" y="748.0677">for</text><text fill="#000000" font-family="sans-serif" font-size="13" lengthAdjust="spacing" textLength="41" x="1551.5" y="763.3783">offline</text><text fill="#000000" font-family="sans-serif" font-size="13" lengthAdjust="spacing" textLength="74" x="1551.5" y="778.6888">comparison</text><text fill="#000000" font-family="sans-serif" font-size="13" lengthAdjust="spacing" textLength="4" x="1625.5" y="778.6888">&#160;</text><text fill="#000000" font-family="sans-serif" font-size="13" lengthAdjust="spacing" textLength="46" x="1629.5" y="778.6888">against</text><text fill="#000000" font-family="sans-serif" font-size="13" lengthAdjust="spacing" textLength="4" x="1675.5" y="778.6888">&#160;</text><text fill="#000000" font-family="sans-serif" font-size="13" lengthAdjust="spacing" textLength="49" x="1679.5" y="778.6888">Pipeline</text><text fill="#000000" font-family="sans-serif" font-size="13" lengthAdjust="spacing" textLength="4" x="1728.5" y="778.6888">&#160;</text><text fill="#000000" font-family="sans-serif" font-size="13" lengthAdjust="spacing" textLength="13" x="1732.5" y="778.6888">A.</text></g><g id="elem_GMN50"><path d="M775,849.8883 L775,951.7516 A0,0 0 0 0 775,951.7516 L987,951.7516 A0,0 0 0 0 987,951.7516 L987,859.8883 L977,849.8883 L885,849.8883 L881,769.8583 L877,849.8883 L775,849.8883 A0,0 0 0 0 775,849.8883 " fill="#FEFFDD" style="stroke:#181818;stroke-width:0.5;"/><path d="M977,849.8883 L977,859.8883 L987,859.8883 L977,849.8883 " fill="#FEFFDD" style="stroke:#181818;stroke-width:0.5;"/><text fill="#000000" font-family="sans-serif" font-size="13" lengthAdjust="spacing" textLength="42" x="781" y="867.4566">Shared</text><text fill="#000000" font-family="sans-serif" font-size="13" lengthAdjust="spacing" textLength="4" x="823" y="867.4566">&#160;</text><text fill="#000000" font-family="sans-serif" font-size="13" lengthAdjust="spacing" textLength="52" x="827" y="867.4566">between</text><text fill="#000000" font-family="sans-serif" font-size="13" lengthAdjust="spacing" textLength="4" x="879" y="867.4566">&#160;</text><text fill="#000000" font-family="sans-serif" font-size="13" lengthAdjust="spacing" textLength="49" x="883" y="867.4566">Pipeline</text><text fill="#000000" font-family="sans-serif" font-size="13" lengthAdjust="spacing" textLength="4" x="932" y="867.4566">&#160;</text><text fill="#000000" font-family="sans-serif" font-size="13" lengthAdjust="spacing" textLength="9" x="936" y="867.4566">A</text><text fill="#000000" font-family="sans-serif" font-size="13" lengthAdjust="spacing" textLength="4" x="945" y="867.4566">&#160;</text><text fill="#000000" font-family="sans-serif" font-size="13" lengthAdjust="spacing" textLength="23" x="949" y="867.4566">and</text><text fill="#000000" font-family="sans-serif" font-size="13" lengthAdjust="spacing" textLength="49" x="781" y="882.7672">Pipeline</text><text fill="#000000" font-family="sans-serif" font-size="13" lengthAdjust="spacing" textLength="4" x="830" y="882.7672">&#160;</text><text fill="#000000" font-family="sans-serif" font-size="13" lengthAdjust="spacing" textLength="11" x="834" y="882.7672">B.</text><text fill="#000000" font-family="sans-serif" font-size="13" lengthAdjust="spacing" textLength="47" x="781" y="898.0777">Verifies</text><text fill="#000000" font-family="sans-serif" font-size="13" lengthAdjust="spacing" textLength="4" x="828" y="898.0777">&#160;</text><text fill="#000000" font-family="sans-serif" font-size="13" lengthAdjust="spacing" textLength="29" x="832" y="898.0777">shift</text><text fill="#000000" font-family="sans-serif" font-size="13" lengthAdjust="spacing" textLength="4" x="861" y="898.0777">&#160;</text><text fill="#000000" font-family="sans-serif" font-size="13" lengthAdjust="spacing" textLength="39" x="865" y="898.0777">times,</text><text fill="#000000" font-family="sans-serif" font-size="13" lengthAdjust="spacing" textLength="4" x="904" y="898.0777">&#160;</text><text fill="#000000" font-family="sans-serif" font-size="13" lengthAdjust="spacing" textLength="28" x="908" y="898.0777">time</text><text fill="#000000" font-family="sans-serif" font-size="13" lengthAdjust="spacing" textLength="59" x="781" y="913.3883">windows,</text><text fill="#000000" font-family="sans-serif" font-size="13" lengthAdjust="spacing" textLength="23" x="781" y="928.6988">and</text><text fill="#000000" font-family="sans-serif" font-size="13" lengthAdjust="spacing" textLength="4" x="804" y="928.6988">&#160;</text><text fill="#000000" font-family="sans-serif" font-size="13" lengthAdjust="spacing" textLength="44" x="808" y="928.6988">vehicle</text><text fill="#000000" font-family="sans-serif" font-size="13" lengthAdjust="spacing" textLength="4" x="852" y="928.6988">&#160;</text><text fill="#000000" font-family="sans-serif" font-size="13" lengthAdjust="spacing" textLength="52" x="856" y="928.6988">capacity</text><text fill="#000000" font-family="sans-serif" font-size="13" lengthAdjust="spacing" textLength="4" x="908" y="928.6988">&#160;</text><text fill="#000000" font-family="sans-serif" font-size="13" lengthAdjust="spacing" textLength="46" x="912" y="928.6988">against</text><text fill="#000000" font-family="sans-serif" font-size="13" lengthAdjust="spacing" textLength="20" x="781" y="944.0094">the</text><text fill="#000000" font-family="sans-serif" font-size="13" lengthAdjust="spacing" textLength="4" x="801" y="944.0094">&#160;</text><text fill="#000000" font-family="sans-serif" font-size="13" lengthAdjust="spacing" textLength="56" x="805" y="944.0094">solution.</text></g><!--link Models to Developer--><!--link Client to API--><g id="link_Client_API"><path d="M89,119.9383 C89,153.7183 89,196.3883 89,225.9983 " fill="none" id="Client-to-API" style="stroke:#181818;stroke-width:1.0;"/><polygon fill="#181818" points="89,231.9983,93,222.9983,89,226.9983,85,222.9983,89,231.9983" style="stroke:#181818;stroke-width:1.0;"/><text fill="#000000" font-family="sans-serif" font-size="13" lengthAdjust="spacing" textLength="113" x="95.5" y="163.0466">HTTP POST /solve</text><text fill="#000000" font-family="sans-serif" font-size="13" lengthAdjust="spacing" textLength="124" x="90" y="178.3572">HTTP GET /solution</text></g><!--link API to Validator--><g id="link_API_Validator"><path d="M86.91,285.9183 C84.71,313.1783 81.7608,349.8176 79.5708,377.0576 " fill="none" id="API-to-Validator" style="stroke:#181818;stroke-width:1.0;"/><polygon fill="#181818" points="79.09,383.0383,83.7984,374.3878,79.4907,378.0544,75.8241,373.7467,79.09,383.0383" style="stroke:#181818;stroke-width:1.0;"/><text fill="#000000" font-family="sans-serif" font-size="13" lengthAdjust="spacing" textLength="97" x="85.43" y="329.0266">validate_input()</text></g><!--link API to MainOrchestrator--><g id="link_API_MainOrchestrator"><path d="M129.75,274.3883 C206.1,301.4083 365.0236,357.6471 450.4436,387.8671 " fill="none" id="API-to-MainOrchestrator" style="stroke:#181818;stroke-width:1.0;"/><polygon fill="#181818" points="456.1,389.8683,448.9494,383.0956,451.3863,388.2007,446.2812,390.6375,456.1,389.8683" style="stroke:#181818;stroke-width:1.0;"/><text fill="#000000" font-family="sans-serif" font-size="13" lengthAdjust="spacing" textLength="98" x="287.88" y="329.0266">solve_pipeline()</text></g><!--link MainOrchestrator to VehicleRoutesSolver--><g id="link_MainOrchestrator_VehicleRoutesSolver"><path d="M475.46,436.7683 C435.34,466.7583 374.3452,512.3552 334.2652,542.3252 " fill="none" id="MainOrchestrator-to-VehicleRoutesSolver" style="stroke:#181818;stroke-width:1.0;"/><polygon fill="#181818" points="329.46,545.9183,339.0632,543.7321,333.4643,542.924,334.2724,537.3252,329.46,545.9183" style="stroke:#181818;stroke-width:1.0;"/></g><!--link MainOrchestrator to LoaderRoutesSolver--><g id="link_MainOrchestrator_LoaderRoutesSolver"><path d="M507.59,436.7683 C504.79,466.7583 500.7581,509.9743 497.9581,539.9443 " fill="none" id="MainOrchestrator-to-LoaderRoutesSolver" style="stroke:#181818;stroke-width:1.0;"/><polygon fill="#181818" points="497.4,545.9183,502.2199,537.3294,497.8651,540.94,494.2545,536.5852,497.4,545.9183" style="stroke:#181818;stroke-width:1.0;"/></g><!--link VehicleRoutesSolver to CommonUtils--><g id="link_VehicleRoutesSolver_CommonUtils"><path d="M301.16,599.6283 C308.68,631.2883 319.9238,678.6606 327.4438,710.3306 " fill="none" id="VehicleRoutesSolver-to-CommonUtils" style="stroke:#181818;stroke-width:1.0;"/><polygon fill="#181818" points="328.83,716.1683,330.6426,706.4877,327.6749,711.3035,322.859,708.3359,328.83,716.1683" style="stroke:#181818;stroke-width:1.0;"/></g><!--link LoaderRoutesSolver to CommonUtils--><g id="link_LoaderRoutesSolver_CommonUtils"><path d="M470.35,599.6283 C440.28,631.2883 393.892,680.1478 363.812,711.8178 " fill="none" id="LoaderRoutesSolver-to-CommonUtils" style="stroke:#181818;stroke-width:1.0;"/><polygon fill="#181818" points="359.68,716.1683,368.7783,712.3973,363.1234,712.5429,362.9777,706.8879,359.68,716.1683" style="stroke:#181818;stroke-width:1.0;"/></g><!--link MainOrchestrator to Models--><g id="link_MainOrchestrator_Models"><path d="M537.42,436.6883 C555.22,454.3183 578.16,478.8283 595,503.1883 C644.9,575.3583 684.2722,665.6593 702.6422,710.8893 " fill="none" id="MainOrchestrator-to-Models" style="stroke:#181818;stroke-width:1.0;"/><polygon fill="#181818" points="704.9,716.4483,705.2193,706.6046,703.0185,711.8158,697.8073,709.615,704.9,716.4483" style="stroke:#181818;stroke-width:1.0;"/></g><!--link VehicleRoutesSolver to Models--><g id="link_VehicleRoutesSolver_Models"><path d="M371.53,599.5883 C425.2,617.5083 498.74,641.5583 564,661.1683 C576.81,665.0083 580.71,663.9083 593,669.1683 C622.84,681.9283 649.2012,697.5502 672.6612,712.9202 " fill="none" id="VehicleRoutesSolver-to-Models" style="stroke:#181818;stroke-width:1.0;"/><polygon fill="#181818" points="677.68,716.2083,672.3439,707.9303,673.4977,713.4682,667.9597,714.622,677.68,716.2083" style="stroke:#181818;stroke-width:1.0;"/></g><!--link LoaderRoutesSolver to Models--><g id="link_LoaderRoutesSolver_Models"><path d="M528.89,599.6283 C570.23,631.2883 634.9462,680.8505 676.3062,712.5205 " fill="none" id="LoaderRoutesSolver-to-Models" style="stroke:#181818;stroke-width:1.0;"/><polygon fill="#181818" points="681.07,716.1683,676.3561,707.5208,677.1001,713.1285,671.4924,713.8726,681.07,716.1683" style="stroke:#181818;stroke-width:1.0;"/></g><!--link MainOrchestrator to DataStorage--><g id="link_MainOrchestrator_DataStorage"><path d="M563.75,414.4183 C637.45,421.3783 771.58,442.0783 867,503.1883 C951.77,557.4783 1014.2561,655.6802 1043.0361,706.7902 " fill="none" id="MainOrchestrator-to-DataStorage" style="stroke:#181818;stroke-width:1.0;"/><polygon fill="#181818" points="1045.98,712.0183,1045.0495,702.2135,1043.5267,707.6615,1038.0787,706.1387,1045.98,712.0183" style="stroke:#181818;stroke-width:1.0;"/><text fill="#000000" font-family="sans-serif" font-size="13" lengthAdjust="spacing" textLength="95" x="976.36" y="570.2466">read input.json</text><text fill="#000000" font-family="sans-serif" font-size="13" lengthAdjust="spacing" textLength="108" x="969.86" y="585.5572">write output.json</text></g><!--link MainOrchestrator to Verifier--><g id="link_MainOrchestrator_Verifier"><path d="M553.86,436.8583 C582.05,454.2683 618.89,478.4783 649,503.1883 C729.41,569.1683 742.15,593.9483 814,669.1683 C828.73,684.5883 840.8744,697.7582 853.6444,711.8082 " fill="none" id="MainOrchestrator-to-Verifier" style="stroke:#181818;stroke-width:1.0;"/><polygon fill="#181818" points="857.68,716.2483,854.5867,706.8978,854.317,712.5482,848.6666,712.2786,857.68,716.2483" style="stroke:#181818;stroke-width:1.0;"/><text fill="#000000" font-family="sans-serif" font-size="13" lengthAdjust="spacing" textLength="107" x="750.54" y="577.7466">run_verification()</text></g><!--link Developer to ScriptOrchestrator--><g id="link_Developer_ScriptOrchestrator"><path d="M1276,448.6283 C1276,478.5083 1276,513.4683 1276,539.7583 " fill="none" id="Developer-to-ScriptOrchestrator" style="stroke:#181818;stroke-width:1.0;"/><polygon fill="#181818" points="1276,545.7583,1280,536.7583,1276,540.7583,1272,536.7583,1276,545.7583" style="stroke:#181818;stroke-width:1.0;"/><text fill="#000000" font-family="sans-serif" font-size="13" lengthAdjust="spacing" textLength="103" x="1277" y="491.7566">python script.py</text></g><!--link ScriptOrchestrator to PyVRPModel--><g id="link_ScriptOrchestrator_PyVRPModel"><path d="M1277.39,599.6283 C1279.08,631.2883 1281.6003,678.5068 1283.2903,710.1768 " fill="none" id="ScriptOrchestrator-to-PyVRPModel" style="stroke:#181818;stroke-width:1.0;"/><polygon fill="#181818" points="1283.61,716.1683,1287.1247,706.9679,1283.3436,711.1754,1279.1361,707.3942,1283.61,716.1683" style="stroke:#181818;stroke-width:1.0;"/></g><!--link ScriptOrchestrator to LoadersSolver--><g id="link_ScriptOrchestrator_LoadersSolver"><path d="M1302.81,599.6283 C1335.5,631.2883 1386.1394,680.3247 1418.8494,711.9947 " fill="none" id="ScriptOrchestrator-to-LoadersSolver" style="stroke:#181818;stroke-width:1.0;"/><polygon fill="#181818" points="1423.16,716.1683,1419.4765,707.0342,1419.5678,712.6903,1413.9117,712.7817,1423.16,716.1683" style="stroke:#181818;stroke-width:1.0;"/></g><!--link ScriptOrchestrator to Verifier--><g id="link_ScriptOrchestrator_Verifier"><path d="M1222.11,585.6383 C1141.5,604.1383 994.04,640.5783 948,669.1683 C928.42,681.3283 914.6471,695.9994 902.4771,711.7594 " fill="none" id="ScriptOrchestrator-to-Verifier" style="stroke:#181818;stroke-width:1.0;"/><polygon fill="#181818" points="898.81,716.5083,907.4766,711.8297,901.866,712.5509,901.1448,706.9402,898.81,716.5083" style="stroke:#181818;stroke-width:1.0;"/></g><!--link ScriptOrchestrator to Models--><g id="link_ScriptOrchestrator_Models"><path d="M1222.27,586.1583 C1202.44,590.5583 1179.75,595.3483 1159,599.1683 C1005.55,627.3583 955.44,601.1983 815,669.1683 C789.27,681.6183 767.9214,697.0259 748.8914,712.6159 " fill="none" id="ScriptOrchestrator-to-Models" style="stroke:#181818;stroke-width:1.0;"/><polygon fill="#181818" points="744.25,716.4183,753.7469,713.809,748.1178,713.2497,748.6771,707.6205,744.25,716.4183" style="stroke:#181818;stroke-width:1.0;"/></g><!--link LoadersSolver to Models--><g id="link_LoadersSolver_Models"><path d="M1435.55,716.1783 C1419.65,689.6883 1391.39,650.8883 1354.5,634.1683 C1248.85,586.2683 940.48,591.7983 832.5,634.1683 C790.54,650.6283 758.3143,685.1626 737.6043,711.7826 " fill="none" id="LoadersSolver-to-Models" style="stroke:#181818;stroke-width:1.0;"/><polygon fill="#181818" points="733.92,716.5183,742.6035,711.871,736.9902,712.5719,736.2893,706.9587,733.92,716.5183" style="stroke:#181818;stroke-width:1.0;"/></g><!--link ScriptOrchestrator to DataStorage--><g id="link_ScriptOrchestrator_DataStorage"><path d="M1222.21,594.2383 C1201.98,603.3183 1179.44,615.1383 1161,629.1683 C1130.07,652.6983 1105.1969,682.2985 1086.8069,706.9585 " fill="none" id="ScriptOrchestrator-to-DataStorage" style="stroke:#181818;stroke-width:1.0;"/><polygon fill="#181818" points="1083.22,711.7683,1091.8069,706.9448,1086.2091,707.7601,1085.3938,702.1623,1083.22,711.7683" style="stroke:#181818;stroke-width:1.0;"/><text fill="#000000" font-family="sans-serif" font-size="13" lengthAdjust="spacing" textLength="95" x="1168.5" y="642.7366">read input.json</text><text fill="#000000" font-family="sans-serif" font-size="13" lengthAdjust="spacing" textLength="108" x="1162" y="658.0472">write output.json</text></g><!--link Developer to Tester--><g id="link_Developer_Tester"><path d="M1328.27,424.7183 C1446.15,455.7783 1725.158,529.2996 1835.488,558.3696 " fill="none" id="Developer-to-Tester" style="stroke:#181818;stroke-width:1.0;"/><polygon fill="#181818" points="1841.29,559.8983,1833.6062,553.7372,1836.455,558.6243,1831.5679,561.4732,1841.29,559.8983" style="stroke:#181818;stroke-width:1.0;"/><text fill="#000000" font-family="sans-serif" font-size="13" lengthAdjust="spacing" textLength="103" x="1582" y="491.7566">python tester.py</text></g><!--link Tester to TestCases--><g id="link_Tester_TestCases"><path d="M1886,599.6283 C1886,626.1183 1886,682.6983 1886,714.1183 " fill="none" id="Tester-to-TestCases" style="stroke:#181818;stroke-width:1.0;stroke-dasharray:7.0,7.0;"/><polygon fill="#181818" points="1886,720.1183,1890,711.1183,1886,715.1183,1882,711.1183,1886,720.1183" style="stroke:#181818;stroke-width:1.0;"/><text fill="#000000" font-family="sans-serif" font-size="13" lengthAdjust="spacing" textLength="34" x="1887" y="650.2366">reads</text></g><!--link Tester to ComparisonFile--><g id="link_Tester_ComparisonFile"><path d="M1915.73,599.6283 C1955.39,634.2483 2020.0206,690.6618 2054.1806,720.4918 " fill="none" id="Tester-to-ComparisonFile" style="stroke:#181818;stroke-width:1.0;stroke-dasharray:7.0,7.0;"/><polygon fill="#181818" points="2058.7,724.4383,2054.5519,715.5056,2054.9338,721.1495,2049.2899,721.5314,2058.7,724.4383" style="stroke:#181818;stroke-width:1.0;"/><text fill="#000000" font-family="sans-serif" font-size="13" lengthAdjust="spacing" textLength="38" x="1983.5" y="650.2366">writes</text></g><!--link ScriptOrchestrator to GMN47--><g id="link_ScriptOrchestrator_GMN47"><path d="M1329.68,591.4383 C1381.01,609.0583 1460.1,637.8783 1526,669.1683 C1544.95,678.1583 1564.88,688.9383 1583.18,699.4183 " fill="none" id="ScriptOrchestrator-GMN47" style="stroke:#181818;stroke-width:1.0;stroke-dasharray:7.0,7.0;"/></g><!--SRC=[bLRDZjf84BxxAKfS5XHWeXoZ26aoizaTQQ91WPqSCX4gx3RkdNQtrTt0E56aVOWyOPuarJ_O1inXB-2k-kh7N_sqBRU2mIUrjGmUAijB_WqjLnBc0cskT0c__li9Dwgib6JImYt7ZSOIXWjBk1GUETkFaiGySrcXKwG7wCBMv5cprABS2DQ1x3LMdtbc2tZp-dL7RWhCr9xB3UGe34iIJAtICBYUty6DuEHp06ZYuq5votPCg8ff6DxStuqyef4bIONfCsvOS7AFDTC3-9u0VFaWq3m3IP_a4AjgMjMZhywM94xzY89dI158lJiyDw16c_peX9ZpYWak6Lm7qkQJnVKIXfGetx4nxBbc6LZbGenY5WywBPYnEaOgaSico4SwTFK-BLRmz50m0mibTiod6EGhxULjda4Sq07ilDmhp8YmKoV2Yqzz1F2f2-g8ahha7yk58TFK7rVvLgQkUrhhWFEmVgxUUwxczUEdEL4bBDCI0rzKpecIehx0bKarhsmJQE6Fftm5lnzLneH7-RC_mhjtxCL74o3uMgEkPxEMd3DQJWavSD5zgKM1LEAOhezYu0fkqM9AtMQOOwhquhR8_XXAgtdEOpN3OwUEGK0uQZjSew5epYyiw4KfDXdH56tjz5z3LRa2gjRX54U2m15xbF93dliok0b7pPtrKYaHts59NFgCh7zeyWboGkHAk4uQEFqgfRJC5Q5TVjxhAzWmoQWQrFX6YQtlZP2GSt7Z39mNJYqzI9iKfY_2l0nY-qJP1yAupF-0oMG20cjwHIYuj6yf2PqotowPfiwHa0krXpLplxPWRjwEDEGWYTMPV2bubZ7vDPlCkciZH3ar7BOJFl9UmYgYnvd3mbluUxcSm_nXiOGhu_hZINh9Nty6WISWSL1dqcmHCemxXgry6OUZ1dIw1GZhFQ-gc0jXpp3UUy_izm9x1hp7raExqtnkTWRf3HSx_bA8gBxWFMfx7NTQd4ZI33DeP-99xZMdEwup69Te2wFcN6pbAenYwkz4OZesnccljOtnVWnIsUDTxrkblQTSbFDjHV6gsXOqVyrYItfGphXTOfSGnolg0gXPAXVqHvNeAS85i_zTXiZfOHErQu3uKsBijyF4hPGCt7NGmsPOHos3pRPAecOwdRKB9sPbkihZFKC8dwP94YecWxMoLfMWylvRfdENSUFBJ_xJ0jVaoHPqdMuA29yOKqBVoPrwfdSfKMvHqFliEBg6SckCGdWI2DQX0JVKgCQsSQwd2PEPYyJECknS5U4weaLezumwjVDvWcJTPksoYcQ6Fi9uRe4-19aP-p_gPKcVPMPCA6SNFpKWHRf4kAsRzDogFUouJeA_0G00]--></g></svg>